<!-- This SVG file contains a collection of icons used throughout the website. -->
<svg xmlns="http://www.w3.org/2000/svg" style="display:none">
    <symbol id="icon-home" viewBox="0 0 24 24">
        <path d="M12 3l10 9h-3v9h-6v-6h-4v6H5v-9H2l10-9z"/>
    </symbol>
    <symbol id="icon-user" viewBox="0 0 24 24">
        <path d="M12 12c2.21 0 4-1.79 4-4s-1.79-4-4-4-4 1.79-4 4 1.79 4 4 4zm0 2c-3.31 0-10 1.67-10 5v2h20v-2c0-3.33-6.69-5-10-5z"/>
    </symbol>
    <symbol id="icon-portfolio" viewBox="0 0 24 24">
        <path d="M12 2l-10 10h3v10h14v-10h3l-10-10zm0 2.5l7.5 7.5h-5v5h-5v-5h-5l7.5-7.5z"/>
    </symbol>
    <symbol id="icon-contact" viewBox="0 0 24 24">
        <path d="M20 2h-16c-1.1 0-2 .9-2 2v16c0 1.1.9 2 2 2h16c1.1 0 2-.9 2-2v-16c0-1.1-.9-2-2-2zm0 18h-16v-14h16v14z"/>
    </symbol>
    <symbol id="icon-services" viewBox="0 0 24 24">
        <path d="M12 2l-10 10h3v10h14v-10h3l-10-10zm0 2.5l7.5 7.5h-5v5h-5v-5h-5l7.5-7.5z"/>
    </symbol>
</svg>